<svg xmlns="http://www.w3.org/2000/svg" viewBox="0 0 1919.001 1333">
  <defs>
    <style>
      .cls-1 {
        fill: #dccab4;
        opacity: 0.25;
      }
    </style>
  </defs>
  <path id="Intersection_1" data-name="Intersection 1" class="cls-1" d="M2422.235,1513.019l6.643-1.463a5.16,5.16,0,0,1,4.776,1.463Zm-402.494,0,5.1-42.887-58.3-6.933a5.165,5.165,0,0,1,1.248-10.226l63.4,7.73a5.131,5.131,0,0,1,4.472,5.719l-5.656,46.6Zm-471.968,0,3.66-12.937-32.2-8.908a5.2,5.2,0,0,1-3.466-6.343,5.13,5.13,0,0,1,6.343-3.467l37.056,10.4a5.2,5.2,0,0,1,3.466,6.343l-4.185,14.913Zm-256.984,0a5.151,5.151,0,0,1,6.3,0Zm-130.061,0a5.145,5.145,0,0,1-.409-1.949l-.416-64.231a5.1,5.1,0,0,1,1.455-3.467,5.269,5.269,0,0,1,3.64-1.525l64.2-.451a5.2,5.2,0,1,1,0,10.4l-58.928.417.416,58.928a5.153,5.153,0,0,1-.353,1.88Zm-237.727,0-3.793-12.1-38.737,12.1h-7.594a5.137,5.137,0,0,1,1.684-8.916l46.518-14.524a5.129,5.129,0,0,1,6.448,3.467l6.251,19.974Zm-162.749-57.584a5.2,5.2,0,0,1-2.461-.625l-27.384-15.043a5.143,5.143,0,1,1,4.957-9.013l22.843,12.583,12.583-22.844a5.135,5.135,0,0,1,9.013,4.922L764.76,1452.8a5.133,5.133,0,0,1-4.484,2.634Zm1830.919-2.947-57.854-36.813a5.166,5.166,0,0,1-1.595-7.106l36.813-57.854a5.165,5.165,0,0,1,8.7,5.547l-34.074,53.52,49.119,31.24v12A4.921,4.921,0,0,1,2591.173,1452.488Zm-869.966-6.378a4.879,4.879,0,0,1-2.08-.451,5.129,5.129,0,0,1-2.6-6.759l19.9-44.474-44.438-19.9a5.13,5.13,0,1,1,4.194-9.359l49.118,22.011a5.165,5.165,0,0,1,2.6,6.933l-22.011,49.154a5.062,5.062,0,0,1-4.548,2.844Zm-225.644-1.144h-.277l-30.053-1.768a5.208,5.208,0,0,1,.589-10.4l24.924,1.456,1.455-24.923a5.209,5.209,0,1,1,10.4.624l-1.768,30.019a5.13,5.13,0,0,1-5.126,4.993Zm649.38-96.831h-.026a5.09,5.09,0,0,1-2.5-.659,5.2,5.2,0,0,1-1.941-6.933l8.078-14.143-14.144-8.077a5.131,5.131,0,1,1,5.1-8.908l18.615,10.606a5.131,5.131,0,0,1,1.906,6.933l-10.607,18.615a5.093,5.093,0,0,1-4.421,2.565ZM900.992,1333.1a5.1,5.1,0,0,1-3.675-6.24l5.131-19.967-19.966-5.13a5.13,5.13,0,0,1-3.709-6.24,5.2,5.2,0,0,1,6.274-3.709l24.923,6.412a5.165,5.165,0,0,1,3.71,6.274l-6.413,24.924a5.163,5.163,0,0,1-4.991,3.847A5.7,5.7,0,0,1,900.992,1333.1Zm465.869-27.347a5.1,5.1,0,0,1-5.009-4.16l-12.444-64.856a5.165,5.165,0,0,1,4.09-6.032l64.856-12.409a5.143,5.143,0,1,1,1.837,10.121l-59.829,11.474,11.474,59.8a5.165,5.165,0,0,1-4.091,6.031l-.867.035Zm-250.37-1.988h-.416l-23.71-2.7a5.13,5.13,0,0,1,1.179-10.192l18.58,2.115,2.149-18.58a5.13,5.13,0,1,1,10.192,1.144l-2.7,23.71a5.129,5.129,0,0,1-5.089,4.509Zm862.56-8.24h0a5.165,5.165,0,0,1-5.026-4.056l-15.911-74.527a5.165,5.165,0,0,1,3.952-6.1l74.492-15.911a5.14,5.14,0,0,1,2.149,10.053l-69.328,14.836,14.837,69.5a5.094,5.094,0,0,1-3.952,6.066,3.793,3.793,0,0,1-1.03.143C1979.173,1295.535,1979.112,1295.533,1979.051,1295.53ZM693.77,1287.368a5.129,5.129,0,0,1-4.714-3.085l-9.775-22.843a5.13,5.13,0,0,1,2.7-6.76l22.843-9.914a5.139,5.139,0,1,1,4.091,9.428l-18.164,7.869,7.869,18.13a5.165,5.165,0,0,1-2.669,6.932,4.731,4.731,0,0,1-2.183.243Zm939.676-42.646h-.034a5.1,5.1,0,0,1-4.3-7.834l24.265-38.719a5.1,5.1,0,0,1,6.933-1.63l38.719,24.265a5.131,5.131,0,0,1-5.441,8.7l-34.387-21.492-21.457,34.386a5.1,5.1,0,0,1-4.274,2.323Zm798.63-9.113a5.1,5.1,0,0,1-3.766-1.664L2408,1211.934a5.13,5.13,0,1,1,7.556-6.933l16.812,18.268,18.268-16.847a5.13,5.13,0,0,1,6.933,7.557l-22.011,20.139a5.1,5.1,0,0,1-3.467,1.49ZM933.146,1184.461a6.514,6.514,0,0,1-1.178,0l-45.2-10.745a5.1,5.1,0,0,1-3.813-6.17l10.607-45.063a5.146,5.146,0,1,1,10.018,2.357l-9.464,40.245,40.244,9.428a5.13,5.13,0,0,1-1.144,10.122Zm239.066-40.056-58.1-13.866a5.133,5.133,0,1,1,2.392-9.983l53.1,12.375,12.652-53.1a5.133,5.133,0,1,1,9.983,2.391l-13.865,58.1a5.166,5.166,0,0,1-4.957,4.09,4.88,4.88,0,0,1-1.213,0Zm1236.17-9.321h-.048a4.953,4.953,0,0,1-3.038-1.04,5.13,5.13,0,0,1-1.005-7.175l8.148-10.815a5.163,5.163,0,0,1,7.209-1.005l10.815,8.146a5.165,5.165,0,1,1-6.206,8.215l-6.69-5.061-5.061,6.69a5.133,5.133,0,0,1-4.1,2.046Zm-1734.148-6.458a5.132,5.132,0,0,1,1.48-5.755l7.522-6.343-6.343-7.488a5.13,5.13,0,1,1,7.834-6.62l9.671,11.4a5.165,5.165,0,0,1-.625,7.245L682.4,1130.7a5.058,5.058,0,0,1-3.223,1.213l-.157,0A5.132,5.132,0,0,1,674.234,1128.625Zm1074.992-23.191-20.8-40.973a5.131,5.131,0,1,1,9.151-4.645l18.58,36.362,36.362-18.545a5.139,5.139,0,1,1,4.68,9.151l-40.937,20.8a5.241,5.241,0,0,1-2.462.658A5.129,5.129,0,0,1,1749.227,1105.434Zm-296.093-14.9a5.231,5.231,0,0,1-3.467-1.49,5.13,5.13,0,0,1,0-7.279l26-26.345a5.166,5.166,0,0,1,7.279,0l26.344,26a5.147,5.147,0,1,1-7.244,7.314l-22.67-22.393-22.393,22.7a5.166,5.166,0,0,1-3.633,1.495C1453.277,1090.534,1453.206,1090.532,1453.134,1090.529Zm536.263-24.037a5.131,5.131,0,0,1-2.516-9.6l9.394-5.338-5.373-9.428a5.138,5.138,0,0,1,8.943-5.062l7.9,13.865a5.166,5.166,0,0,1-1.941,6.933l-13.865,7.9a5.1,5.1,0,0,1-2.531.728Zm218.567-3.337a5.163,5.163,0,0,1-3.466-6.448l13.865-44.612a5.1,5.1,0,0,1,6.413-3.466l44.646,13.865a5.166,5.166,0,0,1,3.467,6.448,5.1,5.1,0,0,1-6.414,3.466l-39.724-12.34-12.375,39.69a5.13,5.13,0,0,1-4.888,3.64A5.575,5.575,0,0,1,2207.964,1063.155Zm-1187.052-14.02a5.13,5.13,0,0,1-5.131-4.853l-3.466-67.525a5.06,5.06,0,0,1,1.282-3.709,5.133,5.133,0,0,1,3.466-1.7l67.525-3.64a5.207,5.207,0,1,1,.554,10.4l-62.394,3.467,3.466,62.394a5.13,5.13,0,0,1-4.853,5.408Zm-290.278-25.553-26.447-41.041a5.094,5.094,0,0,1-.728-3.882,5.235,5.235,0,0,1,2.253-3.224l41.043-26.553a5.13,5.13,0,0,1,5.546,8.632l-36.709,23.674,23.675,36.709a5.165,5.165,0,0,1-4.333,7.938v.1A5.1,5.1,0,0,1,730.634,1023.582Zm1102.6-30.262a5.1,5.1,0,0,1-5.131-4.991l-.485-16.5a5.131,5.131,0,0,1,4.991-5.269l16.5-.485a5.2,5.2,0,0,1,.277,10.4l-11.37.347.346,11.37a5.131,5.131,0,0,1-4.991,5.269Zm-500.372-12.114a5.13,5.13,0,0,1-4.317-2.357l-24.2-37.888a5.163,5.163,0,0,1,1.56-7.105L1343.8,909.8a5.163,5.163,0,0,1,5.616,8.666l-33.555,21.318,21.353,33.555a5.13,5.13,0,0,1-1.594,6.933,4.932,4.932,0,0,1-2.739.936Zm273.95-2.825-31.2-30.054a5.129,5.129,0,0,1,0-7.279l30.053-31.2a5.136,5.136,0,0,1,7.384,7.141l-26.483,27.419,27.384,26.482a5.165,5.165,0,0,1-3.466,8.84l-.208.1A5.129,5.129,0,0,1,1606.813,978.381ZM2548.1,945.96a5.1,5.1,0,0,1-5.043-4.368l-2.461-16.118-16.119,2.426a5.135,5.135,0,0,1-1.524-10.156l21.214-3.19a5.13,5.13,0,0,1,5.858,4.3l3.189,21.214a5.165,5.165,0,0,1-4.333,5.858l-.762.035Zm-468.12-14.107a5.164,5.164,0,0,1-4.333-2.391l-20.8-32.965a5.131,5.131,0,1,1,8.7-5.442l17.957,28.6,28.6-17.956a5.131,5.131,0,0,1,5.442,8.7l-32.931,20.8a4.913,4.913,0,0,1-2.46.661ZM914.641,871.3l-12.514-6.933a5.13,5.13,0,1,1,4.888-9.013l8.007,4.333,4.333-8.007a5.141,5.141,0,1,1,9.047,4.888l-6.933,12.514a4.886,4.886,0,0,1-6.828,2.218Zm869.674-7.511a5.131,5.131,0,0,1-.832-7.21l20.417-25.929a5.132,5.132,0,0,1,7.211-.832L1837,850.231a5.1,5.1,0,0,1,.866,7.211,5.164,5.164,0,0,1-7.21.866l-21.873-17.331-17.332,21.873a5.093,5.093,0,0,1-3.951,2.045A5.3,5.3,0,0,1,1784.315,863.785Zm-650.6-9.4h-1.11l-20.971-4.645a5.061,5.061,0,0,1-3.883-6.1l4.61-20.8a5.147,5.147,0,0,1,10.053,2.219L1118.947,841l15.945,3.467a5.13,5.13,0,0,1-1.109,10.121Zm328.7-.58a5.131,5.131,0,0,1-4.991-5.269l.416-15.634-15.6-.416a5.164,5.164,0,0,1-5.026-5.269,5.06,5.06,0,0,1,5.269-4.991l20.8.554a5.13,5.13,0,0,1,4.991,5.269l-.554,20.8a5.129,5.129,0,0,1-5.126,4.96Zm-760.84-2.12a5.169,5.169,0,0,1-2.773-.832l-25.52-16.6V822.027l31.1,20.225a5.131,5.131,0,0,1,1.525,7.106,5.2,5.2,0,0,1-4.33,2.322Zm1888-22.491-31.37,4.888a5.143,5.143,0,1,1-1.629-10.156l35.7-5.809v27.635Zm-381.142-8.075a5.1,5.1,0,0,1-3.174-1.11l-30.712-24.438a5.132,5.132,0,1,1,6.378-8.042l26.69,21.249,21.249-26.69a5.132,5.132,0,0,1,8.042,6.377l-24.438,30.712a4.992,4.992,0,0,1-3.467,1.906l-.554.035ZM673.282,790.991l9.679-14.877a5.165,5.165,0,0,1,8.632,5.615l-18.31,28.117ZM1960.334,801.8l-18.753-5.442a5.129,5.129,0,0,1-3.466-6.343l5.407-18.753a5.135,5.135,0,1,1,9.879,2.808l-3.987,13.865,13.865,3.986a5.13,5.13,0,0,1-1.455,10.052l-.035.1A6.962,6.962,0,0,1,1960.334,801.8Zm-686.354-3.174-6.933-16.6a5.165,5.165,0,0,1,2.774-6.725l16.638-6.933a5.144,5.144,0,0,1,3.952,9.5l-11.89,4.922,4.922,11.89a5.165,5.165,0,0,1-2.773,6.725,5.734,5.734,0,0,1-1.941.416A5.131,5.131,0,0,1,1273.981,798.629ZM1607.847,769.1h-.01a5.13,5.13,0,0,1-2.451-9.636l30.262-16.466-16.465-30.261a5.135,5.135,0,1,1,9.013-4.922l18.926,34.664a5.165,5.165,0,0,1-2.045,6.933l-34.664,18.926a5.058,5.058,0,0,1-2.565.762Zm-728-8.7h-.037a5.13,5.13,0,0,1-1.558-10.018l16.223-5.338L889.14,728.85a5.13,5.13,0,0,1,9.741-3.224l6.933,21.11a5.13,5.13,0,0,1-3.258,6.482l-21.076,6.933a5.289,5.289,0,0,1-1.586.243Zm225.59-38.118h-.028a5.138,5.138,0,0,1-2.745-.8l-10.781-6.934a5.13,5.13,0,1,1,5.547-8.631l6.482,4.16,4.16-6.482a5.13,5.13,0,1,1,8.632,5.546l-6.934,10.78a5.129,5.129,0,0,1-4.315,2.357Zm1485.386-1.356a5.1,5.1,0,0,1-1.595-.242l-59.067-19.343a5.163,5.163,0,0,1-3.293-6.482l19.308-59.171a5.141,5.141,0,1,1,9.775,3.19l-17.817,54.318,54.146,17.624v9.978a5.188,5.188,0,0,1-1.184.137C2591.009,720.927,2590.918,720.924,2590.826,720.92Zm-1137.2-5.052h-.026a5.062,5.062,0,0,1-4.064-2.045l-24.542-32.515A5.165,5.165,0,0,1,1426,674.1l32.549-24.542a5.137,5.137,0,1,1,6.17,8.215l-28.425,21.423,21.423,28.459a5.131,5.131,0,0,1-1.005,7.21,5.064,5.064,0,0,1-3.028,1.005Zm371.758-.96h-.416a5.1,5.1,0,0,1-4.714-5.649l2.357-30.054a5.13,5.13,0,0,1,5.512-4.714l30.088,2.357a5.13,5.13,0,1,1-.8,10.226l-24.958-1.941-1.975,24.923a5.131,5.131,0,0,1-5.1,4.854Zm249.214-9.256a5.1,5.1,0,0,1-3.189-6.517l18.51-54.006a5.1,5.1,0,0,1,6.517-3.189l54.006,18.51a5.17,5.17,0,0,1-3.467,9.741l-49.153-16.881L2081.114,702.5a5.163,5.163,0,0,1-4.853,3.466A4.721,4.721,0,0,1,2074.6,705.652ZM715.842,671.633a5.13,5.13,0,0,1-3.848-6.17l3.952-16.638a5.13,5.13,0,0,1,6.169-3.848l16.57,3.883a5.146,5.146,0,0,1-2.357,10.018l-11.543-2.7-2.7,11.542a5.131,5.131,0,0,1-5.061,3.918,4.509,4.509,0,0,1-1.179,0Zm226-31.385a5.128,5.128,0,0,1-4.956-3.882l-9.949-39.031a5.133,5.133,0,0,1,9.949-2.531l8.665,34.109,34.144-8.666a5.13,5.13,0,1,1,2.5,9.949l-39.066,9.949a5.446,5.446,0,0,1-1.075.107C941.976,640.252,941.907,640.251,941.837,640.248Zm313.926-12.841a5.144,5.144,0,0,1-1.039,0l-53.486-10.919a5.2,5.2,0,0,1-4.021-6.066l10.919-53.521a5.133,5.133,0,0,1,10.052,2.08l-9.878,48.53,48.529,9.878a5.13,5.13,0,0,1-1.005,10.156Zm381.5-9.049a3.113,3.113,0,0,1-.8,0L1621.634,616a5.133,5.133,0,0,1-3.467-2.08,4.961,4.961,0,0,1-.9-3.813l2.358-14.8a5.13,5.13,0,0,1,5.892-4.263,5.2,5.2,0,0,1,4.264,5.893l-1.561,9.74,9.741,1.56a5.13,5.13,0,0,1-.832,10.192Zm919.589-44.332h-.009a4.947,4.947,0,0,1-2.8-.867,5.131,5.131,0,0,1-1.457-7.105l39.31-59.518-59.483-39.308a5.13,5.13,0,1,1,5.65-8.564l54.214,35.83V524.6l-31.129,47.1a5.092,5.092,0,0,1-4.273,2.323ZM1885.777,570.7a5.129,5.129,0,0,1-3.466-6.412l15.979-52.377-52.342-15.98a5.143,5.143,0,0,1,2.981-9.844l57.264,17.331a5.13,5.13,0,0,1,3.467,6.413L1892.156,567.1a5.13,5.13,0,0,1-4.888,3.812A5.493,5.493,0,0,1,1885.777,570.7Zm292.279-2.852a5.06,5.06,0,0,1-3.245-1.178l-54.353-45.583a5.1,5.1,0,0,1-.659-7.21l45.583-54.318a5.131,5.131,0,0,1,7.869,6.586L2131,516.515l50.4,42.29a5.13,5.13,0,0,1-3.293,9.047Zm-758.365-1.49a5.059,5.059,0,0,1-1.976-.416l-28.32-11.821a5.164,5.164,0,0,1-2.773-6.725l11.82-28.319a5.144,5.144,0,1,1,9.5,3.951l-9.776,23.606,23.572,9.844a5.1,5.1,0,0,1,2.773,6.691,5.165,5.165,0,0,1-4.772,3.189Zm306.123-23.7h-.023a5.034,5.034,0,0,1-3.235-1.178l-29.5-24.542a5.13,5.13,0,0,1-.658-7.245l24.541-29.5a5.144,5.144,0,0,1,7.9,6.586l-21.284,25.547,25.547,21.249a5.13,5.13,0,0,1-3.272,9.082ZM786.759,529.731h-.047a5.13,5.13,0,0,1-1.444-10.052l12.1-3.744-3.744-12.1a5.132,5.132,0,1,1,9.81-3.016l5.269,17.02a5.3,5.3,0,0,1-.381,3.917,5.03,5.03,0,0,1-3.016,2.5l-17.02,5.234a4.658,4.658,0,0,1-1.485.243Zm271.04-20.137a5.13,5.13,0,0,1-4.4-2.461l-29.326-48.044a5.131,5.131,0,0,1,1.7-6.933l48.045-29.326a5.133,5.133,0,0,1,5.338,8.77l-43.642,26.656,26.657,43.642a5.13,5.13,0,0,1-1.7,6.933,5.058,5.058,0,0,1-2.669.763Zm481.031-8.667-23.155-53.452a5.131,5.131,0,0,1,2.669-6.933l53.452-23.155a5.2,5.2,0,1,1,4.055,9.567L1527.323,448.1l20.8,48.772a5.1,5.1,0,0,1-2.669,6.725,4.756,4.756,0,0,1-1.906.45A5.2,5.2,0,0,1,1538.831,500.927Zm-283.7-16.507a5.237,5.237,0,0,1-3.293-1.213l-10.4-8.7a5.144,5.144,0,1,1,6.586-7.9l6.482,5.442,5.407-6.483a5.144,5.144,0,0,1,7.9,6.586l-8.735,10.4a5.1,5.1,0,0,1-3.948,1.872ZM1990.538,408.6a5.23,5.23,0,0,1-3.466-1.421,5.164,5.164,0,0,1,0-7.279l38.477-39.864-39.9-38.477a5.165,5.165,0,1,1,7.141-7.418l43.572,42.047a5.164,5.164,0,0,1,0,7.279l-42.047,43.573a5.128,5.128,0,0,1-3.684,1.561ZM837.209,401.863a5.094,5.094,0,0,1-1.595-.242l-23.711-7.8a5.13,5.13,0,1,1,3.19-9.741l18.961,6.17,6.169-18.822A5.141,5.141,0,0,1,850,374.618l-7.765,23.711a5.164,5.164,0,0,1-4.9,3.536Zm877.22-9.177a5.13,5.13,0,0,1-3.016-9.29l9.671-6.933-6.933-9.706a5.138,5.138,0,1,1,8.319-6.032l10.087,13.865a5.13,5.13,0,0,1-1.109,7.176l-13.865,10.087a5.168,5.168,0,0,1-2.826.841C1714.649,392.7,1714.539,392.693,1714.429,392.686Zm-448.72-5.8a5.131,5.131,0,0,1-4.888-3.467l-19.759-61.944-61.943,19.759a5.13,5.13,0,0,1-3.12-9.775l66.832-21.318a5.13,5.13,0,0,1,6.448,3.466l21.318,66.8a5.166,5.166,0,0,1-3.467,6.483,6.25,6.25,0,0,1-1.421,0Zm1267.61-27.455a4.842,4.842,0,0,1-2.426-.625l-50.541-27a5.13,5.13,0,0,1,4.749-9.047l46.033,24.576,24.577-46.033a5.2,5.2,0,1,1,9.116,5.026l-27,50.54a5.027,5.027,0,0,1-3.016,2.5,4.5,4.5,0,0,1-1.49.069Zm-1033.9-13.823a5.128,5.128,0,0,1-4.991-4.055l-14.178-65.861a5.129,5.129,0,0,1,3.883-6.1l65.861-14.178a5.14,5.14,0,0,1,2.149,10.052l-60.87,13.068,13.068,60.9a5.1,5.1,0,0,1-3.917,6.1,6.047,6.047,0,0,1-.91.069Zm313.361-67.631.139-.174h-.8l-63.608-10.052a5.063,5.063,0,0,1-3.467-2.046,5.165,5.165,0,0,1-.936-3.812l10.053-63.643a5.2,5.2,0,0,1,5.892-4.264,5.13,5.13,0,0,1,4.264,5.893l-9.29,58.478,58.547,9.22a5.215,5.215,0,0,1-.393,10.415C1813.051,277.992,1812.917,277.987,1812.781,277.977Zm-861.527-5.858V240.3H919.4a5.131,5.131,0,1,1-.034-10.261h36.985a5.13,5.13,0,0,1,5.131,5.13v36.986a5.113,5.113,0,0,1-10.226-.034Zm-277.972-25.6,35.751-13.609a5.173,5.173,0,0,1,3.675,9.671l-39.425,15.01Zm1403.772,3-23.086-33.659a5.165,5.165,0,0,1,1.318-7.141l33.658-23.086a5.165,5.165,0,0,1,5.754,8.423l-29.429,20.174,20.174,29.395a5.126,5.126,0,0,1-1.318,7.141,5.06,5.06,0,0,1-2.842.971A5.2,5.2,0,0,1,2077.054,249.518Zm-960.518-56.606-4.724-12.893h11l3.43,9.357a5.131,5.131,0,0,1-3.05,6.586,5.274,5.274,0,0,1-1.838.416A5.13,5.13,0,0,1,1116.536,192.911Zm758.4-4.885a5.13,5.13,0,0,1-.581-4.717l1.273-3.29h10.853l-2.662,6.862a5,5,0,0,1-8.883,1.146Zm-787.268-8.007h11.114l-5.639,2.077a5.16,5.16,0,0,1-5.475-2.077Z" transform="translate(-673.282 -180.019)"/>
</svg>
