<svg xmlns="http://www.w3.org/2000/svg" viewBox="0 0 245.71 228.051">
  <defs>
    <style>
      .cls-1 {
        fill: #1587ea;
      }
    </style>
  </defs>
  <g id="Group_20" data-name="Group 20" transform="translate(-5215 -4089)">
    <g id="dropbox" transform="translate(5215 4089)">
      <path id="Path_190" data-name="Path 190" class="cls-1" d="M110.73,216.434l-61.16-39.44a5.481,5.481,0,0,0-6.407.336L2.045,210.419a5.481,5.481,0,0,0,.466,8.876l61.16,39.44a5.481,5.481,0,0,0,6.407-.336L111.2,225.311A5.481,5.481,0,0,0,110.73,216.434Z" transform="translate(0 -87.436)"/>
      <path id="Path_191" data-name="Path 191" class="cls-1" d="M237.046,225.31,278.164,258.4a5.481,5.481,0,0,0,6.407.336l61.16-39.44a5.481,5.481,0,0,0,.466-8.876L305.078,177.33a5.481,5.481,0,0,0-6.407-.336l-61.16,39.44A5.481,5.481,0,0,0,237.046,225.31Z" transform="translate(-102.531 -87.436)"/>
      <path id="Path_192" data-name="Path 192" class="cls-1" d="M111.2,44.212,70.077,11.123a5.481,5.481,0,0,0-6.407-.336L2.511,50.228A5.481,5.481,0,0,0,2.045,59.1L43.164,92.193a5.481,5.481,0,0,0,6.407.336l61.16-39.44A5.481,5.481,0,0,0,111.2,44.212Z" transform="translate(0 -9.913)"/>
      <path id="Path_193" data-name="Path 193" class="cls-1" d="M345.73,50.228l-61.16-39.44a5.481,5.481,0,0,0-6.407.336L237.045,44.212a5.481,5.481,0,0,0,.466,8.876l61.16,39.44a5.481,5.481,0,0,0,6.407-.336L346.2,59.1A5.481,5.481,0,0,0,345.73,50.228Z" transform="translate(-102.531 -9.913)"/>
      <path id="Path_194" data-name="Path 194" class="cls-1" d="M157.987,278.251l-47.3,36.731a5.22,5.22,0,0,1-5.953.292l-11.659-7.319a5.113,5.113,0,0,0-7.875,4.178v3.957a4.946,4.946,0,0,0,2.46,4.252L158.08,361.9a5.226,5.226,0,0,0,5.3,0l70.42-41.556a4.946,4.946,0,0,0,2.46-4.252v-3.532a5.113,5.113,0,0,0-7.875-4.178L217.4,315.27a5.22,5.22,0,0,1-5.961-.3l-47.078-36.714A5.218,5.218,0,0,0,157.987,278.251Z" transform="translate(-38.213 -134.568)"/>
    </g>
  </g>
</svg>
