<svg xmlns="http://www.w3.org/2000/svg" viewBox="0 0 38.035 83.25">
  <defs>
    <style>
      .cls-1 {
        fill: #fff;
        fill-rule: evenodd;
      }
    </style>
  </defs>
  <path id="Path_3" data-name="Path 3" class="cls-1" d="M28.018,52.886V93.137a1.035,1.035,0,0,0,1.026,1.043H43.782a1.035,1.035,0,0,0,1.026-1.043V52.224H55.543a1.032,1.032,0,0,0,1.026-.941l1.026-12.34a1.054,1.054,0,0,0-.273-.787,1.018,1.018,0,0,0-.753-.332H44.808V29.071a3.684,3.684,0,0,1,3.653-3.715h8.207a1.035,1.035,0,0,0,1.026-1.043V12a1.053,1.053,0,0,0-.291-.754,1.018,1.018,0,0,0-.734-.314H42.806A14.889,14.889,0,0,0,28.043,25.941V37.823H20.711a1.017,1.017,0,0,0-.742.3,1.052,1.052,0,0,0-.309.747V51.181a1.052,1.052,0,0,0,.309.747,1.017,1.017,0,0,0,.742.3h7.307Z" transform="translate(-19.66 -10.93)"/>
</svg>
