<svg id="design" xmlns="http://www.w3.org/2000/svg" viewBox="0 0 85 85">
  <defs>
    <style>
      .cls-1 {
        fill: #697b6f;
      }
    </style>
  </defs>
  <path id="Path_171" data-name="Path 171" class="cls-1" d="M307.66,346a1.66,1.66,0,1,0,1.66,1.66A1.66,1.66,0,0,0,307.66,346Zm0,0" transform="translate(-255.199 -288.558)"/>
  <path id="Path_172" data-name="Path 172" class="cls-1" d="M76.7,0H8.3A8.31,8.31,0,0,0,0,8.3V59.1a8.31,8.31,0,0,0,8.3,8.3H34.2v7.637h-1.66a8.3,8.3,0,0,0-8.3,8.3A1.66,1.66,0,0,0,25.9,85H59.1a1.66,1.66,0,0,0,1.66-1.66,8.31,8.31,0,0,0-8.3-8.3H50.8V67.4H76.7A8.31,8.31,0,0,0,85,59.1V8.3A8.31,8.31,0,0,0,76.7,0ZM8.3,3.32H76.7A4.986,4.986,0,0,1,81.68,8.3V50.8H74.043V12.617a1.66,1.66,0,0,0-1.66-1.66H59.1a1.66,1.66,0,0,0-1.66,1.66V50.8h-8.31c-.018-1.717-.062-3.41-.134-5.052a106.782,106.782,0,0,0-1.3-13.283,8.3,8.3,0,0,0,2.267-10.828l-5.754-9.966a1.66,1.66,0,0,0-2.875,0l-5.757,9.967a8.3,8.3,0,0,0,1.827,10.476,105.386,105.386,0,0,0-1.4,13.63c-.075,1.66-.122,3.353-.14,5.055h-8.31V25.9a1.651,1.651,0,0,0-.164-.717c0-.008-.007-.018-.011-.026L20.743,11.875a1.661,1.661,0,0,0-2.97,0L11.132,25.156c0,.008-.006.018-.01.026a1.65,1.65,0,0,0-.165.717V50.8H3.32V8.3A4.986,4.986,0,0,1,8.3,3.32ZM60.762,50.8V14.277h9.961V17.6h-1.66a1.66,1.66,0,1,0,0,3.32h1.66V25.9h-1.66a1.66,1.66,0,1,0,0,3.32h1.66V34.2h-1.66a1.66,1.66,0,1,0,0,3.32h1.66V44.16h-1.66a1.66,1.66,0,1,0,0,3.32h1.66V50.8ZM42.776,34.084a8.313,8.313,0,0,0,1.791-.2c.308,1.975.761,5.469,1.029,10.275h-6.18c.281-4.8.755-8.351,1.082-10.393a8.311,8.311,0,0,0,2.278.317Zm0-3.32A4.987,4.987,0,0,1,38.457,23.3l4.318-7.476L47.091,23.3a4.983,4.983,0,0,1-4.316,7.466ZM39.263,47.48h6.478c.035,1.091.059,2.2.071,3.32H39.189c.012-1.113.038-2.222.075-3.32ZM20.918,50.8V27.559h3.32V50.8Zm-6.641,0V27.559H17.6V50.8ZM15.3,24.238l3.955-7.909,3.955,7.909ZM57.157,81.68H27.841a4.99,4.99,0,0,1,4.7-3.32H52.461a4.988,4.988,0,0,1,4.7,3.32ZM47.48,75.039H37.519V67.4H47.48ZM76.7,64.082H8.3A4.986,4.986,0,0,1,3.32,59.1v-4.98H81.68V59.1A4.986,4.986,0,0,1,76.7,64.082Zm0,0"/>
  <path id="Path_173" data-name="Path 173" class="cls-1" d="M217.618,346H207.66a1.66,1.66,0,0,0,0,3.32h9.959a1.66,1.66,0,0,0,0-3.32Zm0,0" transform="translate(-171.799 -288.558)"/>
</svg>
