<svg xmlns="http://www.w3.org/2000/svg" viewBox="0 0 72.561 50.399">
  <defs>
    <style>
      .cls-1 {
        fill: #fff;
      }
    </style>
  </defs>
  <g id="mail" transform="translate(0.028)">
    <g id="OBJECTS" transform="translate(-0.028 0)">
      <path id="Path_10" data-name="Path 10" class="cls-1" d="M70.258,50.4h-68A2.244,2.244,0,0,1,0,48.155V2.259A2.259,2.259,0,0,1,2.259,0h68a2.259,2.259,0,0,1,2.259,2.259v45.9A2.244,2.244,0,0,1,70.258,50.4ZM4.5,45.9h63.51V4.5H4.5Z" transform="translate(0.043 0)"/>
      <path id="Path_11" data-name="Path 11" class="cls-1" d="M36.257,32.278a9.929,9.929,0,0,1-6.64-2.536L.752,3.935a2.259,2.259,0,0,1-.6-2.49A2.229,2.229,0,0,1,2.258,0h68a2.229,2.229,0,0,1,2.106,1.445,2.259,2.259,0,0,1-.6,2.49L42.9,29.726A9.929,9.929,0,0,1,36.257,32.278ZM8.16,4.5,32.615,26.36a5.456,5.456,0,0,0,7.286,0h0L64.354,4.5Z" transform="translate(0.045 0)"/>
      <path id="Path_12" data-name="Path 12" class="cls-1" d="M70.273,42.084h-68A2.259,2.259,0,0,1,.768,38.1L26.145,15.508a2.279,2.279,0,0,1,3.074,3.366L8.177,37.58H64.371L43.452,18.874a2.259,2.259,0,0,1,3-3.366L71.779,38.1a2.259,2.259,0,0,1-1.537,3.935Z" transform="translate(0.028 8.008)"/>
    </g>
  </g>
</svg>
