<svg id="hacker" xmlns="http://www.w3.org/2000/svg" viewBox="0 0 85 85">
  <defs>
    <style>
      .cls-1 {
        fill: #697b6f;
      }
    </style>
  </defs>
  <g id="Group_17" data-name="Group 17">
    <g id="Group_16" data-name="Group 16">
      <path id="Path_182" data-name="Path 182" class="cls-1" d="M78.145,52.1V12.339A6.863,6.863,0,0,0,71.29,5.484H52.752a12.325,12.325,0,0,0-20.5,0H13.71a6.863,6.863,0,0,0-6.855,6.855V52.1H0v6.855a6.863,6.863,0,0,0,6.855,6.855H24.191a31.345,31.345,0,0,0,4.31,8.534l3.031,4.243V85H53.468V78.519a30.254,30.254,0,0,0,4-12.713H78.145A6.863,6.863,0,0,0,85,58.952V52.1ZM42.5,2.742a9.608,9.608,0,0,1,9.6,9.6v6.855H49.355V12.339a6.855,6.855,0,1,0-13.71,0,1.371,1.371,0,1,1-2.742,0A9.608,9.608,0,0,1,42.5,2.742Zm9.6,19.194V41.129H41.129a4.113,4.113,0,1,0-8.226,0V21.935ZM46.613,13.71H38.135a4.067,4.067,0,0,0,.252-1.371,4.113,4.113,0,1,1,8.226,0ZM9.6,12.339A4.118,4.118,0,0,1,13.71,8.226H30.881a12.251,12.251,0,0,0-.72,4.113,4.067,4.067,0,0,0,.252,1.371H17.823a2.745,2.745,0,0,0-2.742,2.742V52.1H9.6ZM6.855,63.066h0a4.118,4.118,0,0,1-4.113-4.113V54.839H21.966c-.007.1-.03.2-.03.3v.736a4.391,4.391,0,0,0,.1.957l1.338,6.021c.016.071.041.14.058.211ZM23.167,52.1H17.823V16.452h28.79v2.742H30.161V43.871H32.9V52.1h-3.36a4.393,4.393,0,0,0-6.376,0ZM32.9,54.839v8.226h-.271L30.8,54.839ZM54.839,63.3a27.5,27.5,0,0,1-3.917,14.143l-.2.326v4.493H34.274V77.706l-3.543-4.96a28.649,28.649,0,0,1-4.676-10.488l-1.338-6.02a1.686,1.686,0,0,1-.04-.363V55.14a1.672,1.672,0,0,1,3.3-.363l2.451,11.029h5.212V41.129a1.371,1.371,0,1,1,2.742,0V61.694h2.742V49.355a1.371,1.371,0,1,1,2.742,0V61.694h2.742V52.1a1.371,1.371,0,1,1,2.742,0v9.6H52.1V54.839a1.371,1.371,0,0,1,2.742,0Zm1.673-11.2a4.054,4.054,0,0,0-4.574-1.069,4.078,4.078,0,0,0-5.484-2.742,4.044,4.044,0,0,0-5.325-2.791V43.871h13.71V16.452H67.177V46.613h2.742V16.452a2.745,2.745,0,0,0-2.742-2.742H54.839V12.339a12.251,12.251,0,0,0-.72-4.113H71.29A4.118,4.118,0,0,1,75.4,12.339V52.1H69.919V49.355H67.177V52.1Zm25.747,6.855a4.118,4.118,0,0,1-4.113,4.113H57.581V54.839H82.258Z"/>
      <path id="Path_183" data-name="Path 183" class="cls-1" d="M226.7,151.846v5.644h2.7v-5.644a4.047,4.047,0,1,0-2.7,0Zm1.349-5.148a1.349,1.349,0,1,1-1.349,1.349A1.35,1.35,0,0,1,228.047,146.7Z" transform="translate(-185.547 -119.246)"/>
    </g>
  </g>
</svg>
