<svg xmlns="http://www.w3.org/2000/svg" viewBox="0 0 85 85">
  <defs>
    <style>
      .cls-1 {
        fill: #697b6f;
      }
    </style>
  </defs>
  <g id="support" transform="translate(0 0)">
    <path id="Path_184" data-name="Path 184" class="cls-1" d="M15.089,65.692a7.05,7.05,0,0,0-3.38.854A38.981,38.981,0,0,1,3.351,42.473,39.4,39.4,0,0,1,42.9,3.318a40.225,40.225,0,0,1,7.875.776A1.66,1.66,0,1,0,51.434.841,43.629,43.629,0,0,0,42.9,0,42.831,42.831,0,0,0,12.563,12.44,42.164,42.164,0,0,0,9.23,68.8a6.92,6.92,0,0,0,.882,8.792,7.085,7.085,0,0,0,9.952,0,6.92,6.92,0,0,0,0-9.854,7.027,7.027,0,0,0-4.976-2.041Zm2.606,9.549a3.711,3.711,0,0,1-5.213,0,3.624,3.624,0,0,1,0-5.162,3.713,3.713,0,0,1,5.213,0,3.624,3.624,0,0,1,0,5.162Zm0,0"/>
    <path id="Path_185" data-name="Path 185" class="cls-1" d="M240.952,42.882a6.929,6.929,0,0,0-.88-8.791,7.088,7.088,0,0,0-9.953,0,6.921,6.921,0,0,0,0,9.855,7.1,7.1,0,0,0,8.356,1.187,38.982,38.982,0,0,1,8.358,24.074,39.4,39.4,0,0,1-39.544,39.155,40.215,40.215,0,0,1-7.8-.762,1.66,1.66,0,1,0-.658,3.254,43.66,43.66,0,0,0,8.458.826A42.831,42.831,0,0,0,237.62,99.24a42.164,42.164,0,0,0,3.332-56.358ZM232.489,41.6a3.624,3.624,0,0,1,0-5.162,3.712,3.712,0,0,1,5.213,0,3.63,3.63,0,0,1,0,5.162,3.713,3.713,0,0,1-5.213,0Zm0,0" transform="translate(-165.185 -26.681)"/>
    <path id="Path_186" data-name="Path 186" class="cls-1" d="M97.262,132.547a1.654,1.654,0,0,0,1.654,1.654h10.341a1.654,1.654,0,0,0,1.654-1.654v-3.206a25.9,25.9,0,0,0,6.207-2.573l2.264,2.264a1.653,1.653,0,0,0,2.339,0l7.309-7.315a1.654,1.654,0,0,0,0-2.339l-2.261-2.261a25.9,25.9,0,0,0,2.573-6.207h3.194a1.654,1.654,0,0,0,1.654-1.654V98.915a1.654,1.654,0,0,0-1.654-1.654h-3.195a25.9,25.9,0,0,0-2.572-6.207l2.249-2.249a1.654,1.654,0,0,0,0-2.34L121.7,79.156a1.654,1.654,0,0,0-2.339,0L117.119,81.4a25.9,25.9,0,0,0-6.207-2.573V75.654A1.654,1.654,0,0,0,109.257,74H98.916a1.654,1.654,0,0,0-1.654,1.654v3.177A25.877,25.877,0,0,0,91.056,81.4L88.81,79.157a1.654,1.654,0,0,0-2.339,0l-7.315,7.31a1.653,1.653,0,0,0,0,2.339L81.4,91.054a25.9,25.9,0,0,0-2.573,6.207H75.644a1.654,1.654,0,0,0-1.654,1.653l-.006,10.341a1.653,1.653,0,0,0,1.654,1.655h3.194a25.9,25.9,0,0,0,2.573,6.207l-2.261,2.261a1.654,1.654,0,0,0,0,2.339l7.309,7.315a1.654,1.654,0,0,0,1.169.485h0a1.654,1.654,0,0,0,1.169-.485l2.263-2.264a25.922,25.922,0,0,0,6.207,2.573ZM91.7,123.29a1.654,1.654,0,0,0-2.067.22l-2.014,2.014-4.971-4.975,2.012-2.012a1.653,1.653,0,0,0,.22-2.067,22.637,22.637,0,0,1-3.133-7.561,1.654,1.654,0,0,0-1.617-1.306H77.292l0-7.033h2.837a1.654,1.654,0,0,0,1.617-1.306,22.639,22.639,0,0,1,3.133-7.56,1.653,1.653,0,0,0-.22-2.067l-2-2,4.975-4.971,2,2a1.655,1.655,0,0,0,2.067.22,22.628,22.628,0,0,1,7.56-3.133,1.655,1.655,0,0,0,1.306-1.617V77.308H107.6v2.824a1.653,1.653,0,0,0,1.306,1.617,22.647,22.647,0,0,1,7.56,3.133,1.652,1.652,0,0,0,2.067-.22l2-2,4.975,4.971-2,2a1.653,1.653,0,0,0-.22,2.067,22.653,22.653,0,0,1,3.133,7.56,1.653,1.653,0,0,0,1.617,1.306h2.842V107.6h-2.842a1.654,1.654,0,0,0-1.617,1.306,22.634,22.634,0,0,1-3.133,7.56,1.654,1.654,0,0,0,.22,2.067l2.012,2.012-4.971,4.975-2.014-2.013a1.654,1.654,0,0,0-2.067-.22,22.654,22.654,0,0,1-7.56,3.133,1.654,1.654,0,0,0-1.306,1.617v2.854H100.57V128.04a1.655,1.655,0,0,0-1.306-1.617,22.64,22.64,0,0,1-7.56-3.133Zm0,0" transform="translate(-61.588 -61.601)"/>
    <path id="Path_187" data-name="Path 187" class="cls-1" d="M201.062,187.216a13.845,13.845,0,1,0-13.845,13.845A13.861,13.861,0,0,0,201.062,187.216Zm-24.34,0a10.494,10.494,0,1,1,10.494,10.494A10.506,10.506,0,0,1,176.722,187.216Zm0,0" transform="translate(-144.717 -144.717)"/>
    <path id="Path_188" data-name="Path 188" class="cls-1" d="M339.754,21.162a1.677,1.677,0,1,0-1.184-.491A1.688,1.688,0,0,0,339.754,21.162Zm0,0" transform="translate(-281.973 -14.825)"/>
    <path id="Path_189" data-name="Path 189" class="cls-1" d="M156.035,474.359a1.676,1.676,0,1,0,1.185.491A1.689,1.689,0,0,0,156.035,474.359Zm0,0" transform="translate(-128.743 -395.667)"/>
  </g>
</svg>
