<svg xmlns="http://www.w3.org/2000/svg" viewBox="0 0 85.347 71.724">
  <defs>
    <style>
      .cls-1 {
        fill: #fff;
      }
    </style>
  </defs>
  <path id="Path_5" data-name="Path 5" class="cls-1" d="M96.365,22.8a33.81,33.81,0,0,1-8.608,2.522c1.368-.247,3.433-2.741,4.237-3.838A16.32,16.32,0,0,0,94.864,16v-.466a.526.526,0,0,0-.456,0,42.771,42.771,0,0,1-10.217,4.03.74.74,0,0,1-.724-.192,7.526,7.526,0,0,0-.885-.959,18.674,18.674,0,0,0-4.988-2.933A17.144,17.144,0,0,0,70,14.221,18.463,18.463,0,0,0,62.791,16.3a19.078,19.078,0,0,0-5.846,4.879,18.387,18.387,0,0,0-3.486,7.1,19.605,19.605,0,0,0-.188,7.511c0,.439,0,.493-.349.439C38.87,34.095,27.2,28.941,17.738,17.921c-.4-.466-.617-.466-.965,0-4.13,6.332-2.119,16.447,3.03,21.518.7.685,1.421,1.343,2.172,1.946a17.275,17.275,0,0,1-6.785-1.946c-.4-.247-.617,0-.644.384a8.965,8.965,0,0,0,0,2.056,18.391,18.391,0,0,0,11.1,14.693,11.322,11.322,0,0,0,2.253.713,19.422,19.422,0,0,1-6.624.247c-.483,0-.67.164-.483.63a18.884,18.884,0,0,0,14,11.979,4.658,4.658,0,0,1,1.9.274h-.134c-1.555,2.44-7,4.276-9.547,5.181a33.528,33.528,0,0,1-14.508,1.891H11.356c-.215,0,0,.329.215.521.992.685,2.011,1.261,3.03,1.837a48.329,48.329,0,0,0,9.708,3.975c17.431,4.907,37.061,1.288,50.148-11.979C84.78,61.507,88.32,47.115,88.32,32.7c0-.548.644-.877,1.046-1.179a34.412,34.412,0,0,0,6.785-7.237,2.171,2.171,0,0,0,.429-1.4h0C96.634,22.581,96.66,22.636,96.365,22.8Z" transform="translate(-11.267 -14.188)"/>
</svg>
