<svg xmlns="http://www.w3.org/2000/svg" viewBox="0 0 85 85">
  <defs>
    <style>
      .cls-1 {
        fill: #697b6f;
      }
    </style>
  </defs>
  <g id="film" transform="translate(0 0)">
    <path id="Path_174" data-name="Path 174" class="cls-1" d="M307.7,200a1.7,1.7,0,1,0,1.7,1.7A1.7,1.7,0,0,0,307.7,200Zm0,0" transform="translate(-255.249 -164.522)"/>
    <path id="Path_175" data-name="Path 175" class="cls-1" d="M307.7,260a1.7,1.7,0,1,0,1.7,1.7A1.7,1.7,0,0,0,307.7,260Zm0,0" transform="translate(-255.249 -213.879)"/>
    <path id="Path_176" data-name="Path 176" class="cls-1" d="M67.7,300a1.7,1.7,0,1,0,1.7,1.7A1.7,1.7,0,0,0,67.7,300Zm0,0" transform="translate(-54.777 -246.783)"/>
    <path id="Path_177" data-name="Path 177" class="cls-1" d="M84.108,21.451a1.573,1.573,0,0,0-1.718.118L68.54,31.875H64.082V30.1a5.16,5.16,0,0,0-4.98-5.313h-6.17a14.552,14.552,0,0,0,4.51-10.625C57.441,6.355,51.484,0,44.16,0A13.189,13.189,0,0,0,32.539,7.318,13.189,13.189,0,0,0,20.918,0C13.594,0,7.637,6.355,7.637,14.167a14.552,14.552,0,0,0,4.51,10.625H4.98A5.16,5.16,0,0,0,0,30.1V61.979a5.16,5.16,0,0,0,4.98,5.312h9.3V72.6a1.718,1.718,0,0,0,1.66,1.771h4.98v8.854A1.718,1.718,0,0,0,22.578,85H42.5a1.718,1.718,0,0,0,1.66-1.771V74.375h4.98A1.718,1.718,0,0,0,50.8,72.6V67.292h8.3a5.16,5.16,0,0,0,4.98-5.312V56.667H68.54L82.39,66.974a1.574,1.574,0,0,0,1.718.118A1.79,1.79,0,0,0,85,65.521v-42.5a1.79,1.79,0,0,0-.892-1.57ZM44.16,3.542c5.493,0,9.961,4.767,9.961,10.625S49.653,24.792,44.16,24.792,34.2,20.026,34.2,14.167,38.667,3.542,44.16,3.542Zm-8.771,21.25h-5.7a14.126,14.126,0,0,0,2.851-3.776,14.137,14.137,0,0,0,2.85,3.776ZM10.957,14.167c0-5.858,4.468-10.625,9.961-10.625s9.961,4.767,9.961,10.625-4.468,10.625-9.961,10.625S10.957,20.026,10.957,14.167ZM40.84,81.458h-16.6V74.375h16.6ZM47.48,70.833H17.6V67.292H47.48Zm13.281-8.854A1.72,1.72,0,0,1,59.1,63.75H4.98a1.72,1.72,0,0,1-1.66-1.771V30.1a1.72,1.72,0,0,1,1.66-1.771H59.1a1.72,1.72,0,0,1,1.66,1.771Zm3.32-26.562H67.4V53.125h-3.32Zm17.6,26.71L70.723,53.972V34.57L81.68,26.416Zm0,0" transform="translate(0 0)"/>
    <path id="Path_178" data-name="Path 178" class="cls-1" d="M101.1,50a5.1,5.1,0,1,0,5.1,5.1A5.107,5.107,0,0,0,101.1,50Zm0,6.8a1.7,1.7,0,1,1,1.7-1.7A1.7,1.7,0,0,1,101.1,56.8Zm0,0" transform="translate(-80.114 -41.498)"/>
    <path id="Path_179" data-name="Path 179" class="cls-1" d="M241.1,60.2a5.1,5.1,0,1,0-5.1-5.1A5.107,5.107,0,0,0,241.1,60.2Zm0-6.8a1.7,1.7,0,1,1-1.7,1.7A1.7,1.7,0,0,1,241.1,53.4Zm0,0" transform="translate(-196.947 -41.498)"/>
    <path id="Path_180" data-name="Path 180" class="cls-1" d="M93.207,211.9V201.7a1.7,1.7,0,0,0-1.7-1.7H67.7a1.7,1.7,0,0,0-1.7,1.7v10.2a1.7,1.7,0,0,0,1.7,1.7H91.507A1.7,1.7,0,0,0,93.207,211.9Zm-3.4-1.7H69.4v-6.8H89.806Zm0,0" transform="translate(-54.777 -164.302)"/>
    <path id="Path_181" data-name="Path 181" class="cls-1" d="M141.709,300H107.7a1.7,1.7,0,0,0,0,3.4h34.009a1.7,1.7,0,0,0,0-3.4Zm0,0" transform="translate(-88.724 -246.783)"/>
  </g>
</svg>
