<svg id="wordpress" xmlns="http://www.w3.org/2000/svg" viewBox="0 0 245 245">
  <defs>
    <style>
      .cls-1 {
        fill: #00769d;
      }
    </style>
  </defs>
  <path id="Path_195" data-name="Path 195" class="cls-1" d="M104.516,92.555H90.889l37.149,105.013,20.8-59.432L132.711,92.555H118.334V82.549H182V92.555H167.092l37.149,105.013,13.354-38.161c17.517-48.891-14.357-64.121-14.357-75.032a19.756,19.756,0,0,1,19.756-19.756c.59,0,1.164.032,1.725.084A103.23,103.23,0,0,0,67.951,82.549h36.563V92.555Z" transform="translate(-31.226 -16.403)"/>
  <path id="Path_196" data-name="Path 196" class="cls-1" d="M36.548,190.867a103.21,103.21,0,0,0,54.834,91.2L44.8,150.376A102.894,102.894,0,0,0,36.548,190.867Z" transform="translate(-16.403 -69.242)"/>
  <path id="Path_197" data-name="Path 197" class="cls-1" d="M353.188,131.547a72.971,72.971,0,0,1-1.236,28.276h.411l-1.561,4.46h0a96.189,96.189,0,0,1-3.412,9.752l-35.521,99.512a103.278,103.278,0,0,0,41.32-142Z" transform="translate(-141.722 -60.791)"/>
  <path id="Path_198" data-name="Path 198" class="cls-1" d="M166.075,332.891a103.716,103.716,0,0,0,62.285.444l-30.2-85.358Z" transform="translate(-75.406 -113.047)"/>
  <path id="Path_199" data-name="Path 199" class="cls-1" d="M209.12,35.879A122.5,122.5,0,0,0,35.879,209.121,122.5,122.5,0,1,0,209.12,35.879ZM122.5,236.359A113.859,113.859,0,1,1,236.357,122.5,113.987,113.987,0,0,1,122.5,236.359Z"/>
</svg>
